<svg width="116" height="168" viewBox="0 0 116 168" fill="none" xmlns="http://www.w3.org/2000/svg">
<path d="M60.5952 167.31C52.6238 167.31 45.2322 166.078 38.4202 163.614C31.7532 161.15 25.9558 157.744 21.0281 153.396C16.2452 149.193 12.5494 144.265 9.94057 138.613L24.9413 130.569C27.2603 136.076 31.3909 140.859 37.3332 144.917C43.2755 148.976 50.8846 151.005 60.1604 151.005C67.2622 151.005 73.7843 149.628 79.7266 146.874C85.6689 144.12 90.4518 140.062 94.0751 134.699C97.6985 129.337 99.5102 122.742 99.5102 114.916V89.0451L102.119 91.4365C98.0608 99.8427 92.046 106.365 84.0746 111.003C76.1032 115.496 67.4071 117.742 57.9864 117.742C47.1163 117.742 37.3332 115.133 28.6371 109.916C19.9411 104.698 13.0567 97.6687 7.98395 88.8277C3.05617 79.8417 0.592285 69.9137 0.592285 59.0436C0.592285 48.0286 3.05617 38.1006 7.98395 29.2595C13.0567 20.4185 19.8686 13.3892 28.4197 8.17157C37.1158 2.95392 46.9714 0.345093 57.9864 0.345093C67.4071 0.345093 75.9583 2.51912 83.6398 6.86716C91.4663 11.2152 97.626 17.085 102.119 24.4767L99.5102 29.0422V2.95392H115.815V114.916C115.815 124.916 113.424 133.83 108.641 141.656C104.003 149.628 97.4811 155.86 89.0749 160.353C80.8136 164.991 71.3204 167.31 60.5952 167.31ZM58.856 101.437C66.3926 101.437 73.2045 99.5528 79.2918 95.7845C85.379 91.8713 90.2344 86.7261 93.8577 80.349C97.626 73.8269 99.5102 66.7252 99.5102 59.0436C99.5102 51.3621 97.626 44.3327 93.8577 37.9556C90.2344 31.4336 85.379 26.2884 79.2918 22.5201C73.2045 18.6069 66.3926 16.6502 58.856 16.6502C51.1745 16.6502 44.2176 18.6069 37.9854 22.5201C31.7532 26.2884 26.8255 31.3611 23.2021 37.7382C19.7237 44.1153 17.9844 51.2171 17.9844 59.0436C17.9844 66.7252 19.7237 73.8269 23.2021 80.349C26.8255 86.7261 31.6808 91.8713 37.768 95.7845C44.0002 99.5528 51.0295 101.437 58.856 101.437Z" fill="#0C4767"/>
<path d="M26.5252 135.411C26.5252 140.233 22.6166 144.141 17.7952 144.141C12.9737 144.141 9.06519 140.233 9.06519 135.411C9.06519 130.59 12.9737 126.681 17.7952 126.681C22.6166 126.681 26.5252 130.59 26.5252 135.411Z" fill="#D05353"/>
</svg>
